<svg width="22" height="18" viewBox="0 0 22 18" fill="none" xmlns="http://www.w3.org/2000/svg">
<path d="M20.3846 1C20.7245 1 21 1.27552 21 1.61539C21 1.95525 20.7245 2.23077 20.3846 2.23077L1.61538 2.23077C1.27552 2.23077 1 1.95525 1 1.61538C1 1.27552 1.27552 1 1.61538 1L20.3846 1Z" fill="#461DBA"/>
<path d="M20.3846 8.38462C20.7245 8.38462 21 8.66013 21 9C21 9.33987 20.7245 9.61539 20.3846 9.61539H1.61538C1.27552 9.61539 1 9.33987 1 9C1 8.66013 1.27552 8.38461 1.61539 8.38461L20.3846 8.38462Z" fill="#461DBA"/>
<path d="M20.3846 15.7692C20.7245 15.7692 21 16.0447 21 16.3846C21 16.7245 20.7245 17 20.3846 17L1.61538 17C1.27552 17 1 16.7245 1 16.3846C1 16.0447 1.27552 15.7692 1.61538 15.7692L20.3846 15.7692Z" fill="#461DBA"/>
<path d="M20.3846 1C20.7245 1 21 1.27552 21 1.61539C21 1.95525 20.7245 2.23077 20.3846 2.23077L1.61538 2.23077C1.27552 2.23077 1 1.95525 1 1.61538C1 1.27552 1.27552 1 1.61538 1L20.3846 1Z" stroke="#461DBA" stroke-width="2"/>
<path d="M20.3846 8.38462C20.7245 8.38462 21 8.66013 21 9C21 9.33987 20.7245 9.61539 20.3846 9.61539H1.61538C1.27552 9.61539 1 9.33987 1 9C1 8.66013 1.27552 8.38461 1.61539 8.38461L20.3846 8.38462Z" stroke="#461DBA" stroke-width="2"/>
<path d="M20.3846 15.7692C20.7245 15.7692 21 16.0447 21 16.3846C21 16.7245 20.7245 17 20.3846 17L1.61538 17C1.27552 17 1 16.7245 1 16.3846C1 16.0447 1.27552 15.7692 1.61538 15.7692L20.3846 15.7692Z" stroke="#461DBA" stroke-width="2"/>
</svg>
