<svg width="12" height="12" viewBox="0 0 12 12" fill="none" xmlns="http://www.w3.org/2000/svg">
<g clip-path="url(#clip0_943_3174)">
<path d="M6.36527 -0.979532C6.50053 -1.11479 6.71982 -1.11479 6.85507 -0.979532C6.99032 -0.844279 6.99032 -0.624989 6.85507 -0.489736L-0.491868 6.8572C-0.627122 6.99246 -0.846411 6.99246 -0.981664 6.8572C-1.11692 6.72195 -1.11692 6.50266 -0.981664 6.36741L6.36527 -0.979532Z" fill="#080808"/>
<path d="M9.30405 1.95924C9.4393 1.82399 9.65859 1.82399 9.79385 1.95924C9.9291 2.0945 9.9291 2.31379 9.79385 2.44904L2.44691 9.79598C2.31165 9.93123 2.09236 9.93123 1.95711 9.79598C1.82186 9.66072 1.82186 9.44144 1.95711 9.30618L9.30405 1.95924Z" fill="#080808"/>
<path d="M12.2428 4.89802C12.3781 4.76277 12.5974 4.76277 12.7326 4.89802C12.8679 5.03327 12.8679 5.25256 12.7326 5.38782L5.38568 12.7348C5.25043 12.87 5.03114 12.87 4.89589 12.7348C4.76063 12.5995 4.76063 12.3802 4.89589 12.245L12.2428 4.89802Z" fill="#080808"/>
<path d="M6.36527 -0.979532C6.50053 -1.11479 6.71982 -1.11479 6.85507 -0.979532C6.99032 -0.844279 6.99032 -0.624989 6.85507 -0.489736L-0.491868 6.8572C-0.627122 6.99246 -0.846411 6.99246 -0.981664 6.8572C-1.11692 6.72195 -1.11692 6.50266 -0.981664 6.36741L6.36527 -0.979532Z" stroke="#080808"/>
<path d="M9.30405 1.95924C9.4393 1.82399 9.65859 1.82399 9.79385 1.95924C9.9291 2.0945 9.9291 2.31379 9.79385 2.44904L2.44691 9.79598C2.31165 9.93123 2.09236 9.93123 1.95711 9.79598C1.82186 9.66072 1.82186 9.44144 1.95711 9.30618L9.30405 1.95924Z" stroke="#080808"/>
<path d="M12.2428 4.89802C12.3781 4.76277 12.5974 4.76277 12.7326 4.89802C12.8679 5.03327 12.8679 5.25256 12.7326 5.38782L5.38568 12.7348C5.25043 12.87 5.03114 12.87 4.89589 12.7348C4.76063 12.5995 4.76063 12.3802 4.89589 12.245L12.2428 4.89802Z" stroke="#080808"/>
</g>
<g clip-path="url(#clip1_943_3174)">
<path d="M5.63473 -0.979532C5.49947 -1.11479 5.28018 -1.11479 5.14493 -0.979532C5.00968 -0.844279 5.00968 -0.624989 5.14493 -0.489736L12.4919 6.8572C12.6271 6.99246 12.8464 6.99246 12.9817 6.8572C13.1169 6.72195 13.1169 6.50266 12.9817 6.36741L5.63473 -0.979532Z" fill="#080808"/>
<path d="M2.69595 1.95924C2.5607 1.82399 2.34141 1.82399 2.20615 1.95924C2.0709 2.0945 2.0709 2.31379 2.20615 2.44904L9.55309 9.79598C9.68835 9.93123 9.90764 9.93123 10.0429 9.79598C10.1781 9.66072 10.1781 9.44144 10.0429 9.30618L2.69595 1.95924Z" fill="#080808"/>
<path d="M-0.242826 4.89802C-0.37808 4.76277 -0.597369 4.76277 -0.732622 4.89802C-0.867875 5.03327 -0.867875 5.25256 -0.732622 5.38782L6.61432 12.7348C6.74957 12.87 6.96886 12.87 7.10411 12.7348C7.23937 12.5995 7.23937 12.3802 7.10411 12.245L-0.242826 4.89802Z" fill="#080808"/>
<path d="M5.63473 -0.979532C5.49947 -1.11479 5.28018 -1.11479 5.14493 -0.979532C5.00968 -0.844279 5.00968 -0.624989 5.14493 -0.489736L12.4919 6.8572C12.6271 6.99246 12.8464 6.99246 12.9817 6.8572C13.1169 6.72195 13.1169 6.50266 12.9817 6.36741L5.63473 -0.979532Z" stroke="#080808"/>
<path d="M2.69595 1.95924C2.5607 1.82399 2.34141 1.82399 2.20615 1.95924C2.0709 2.0945 2.0709 2.31379 2.20615 2.44904L9.55309 9.79598C9.68835 9.93123 9.90764 9.93123 10.0429 9.79598C10.1781 9.66072 10.1781 9.44144 10.0429 9.30618L2.69595 1.95924Z" stroke="#080808"/>
<path d="M-0.242826 4.89802C-0.37808 4.76277 -0.597369 4.76277 -0.732622 4.89802C-0.867875 5.03327 -0.867875 5.25256 -0.732622 5.38782L6.61432 12.7348C6.74957 12.87 6.96886 12.87 7.10411 12.7348C7.23937 12.5995 7.23937 12.3802 7.10411 12.245L-0.242826 4.89802Z" stroke="#080808"/>
</g>
<defs>
<clipPath id="clip0_943_3174">
<rect width="12.4682" height="4.50239" fill="white" transform="translate(0 8.81641) rotate(-45)"/>
</clipPath>
<clipPath id="clip1_943_3174">
<rect width="12.4682" height="4.50239" fill="white" transform="matrix(-0.707107 -0.707107 -0.707107 0.707107 12 8.81641)"/>
</clipPath>
</defs>
</svg>
