<svg width="36" height="37" viewBox="0 0 36 37" fill="none" xmlns="http://www.w3.org/2000/svg">
<path d="M10.5 27.2606C7.23746 27.2425 5.47059 27.0977 4.31802 25.9451C3 24.6271 3 22.5058 3 18.2632V12.2632C3 8.02054 3 5.89922 4.31802 4.5812C5.63604 3.26318 7.75736 3.26318 12 3.26318H24C28.2426 3.26318 30.3639 3.26318 31.682 4.5812C33 5.89922 33 8.02054 33 12.2632V18.2632C33 22.5058 33 24.6271 31.682 25.9451C30.5873 27.04 28.9382 27.2254 25.9796 27.2567L24.75 27.2606" stroke="#0FA4AE" stroke-width="2"/>
<path d="M13.5 9.26318H22.5" stroke="#0FA4AE" stroke-width="2" stroke-linecap="round"/>
<path d="M10.5 14.5132H25.5" stroke="#0FA4AE" stroke-width="2" stroke-linecap="round"/>
<path d="M16.3355 21.1813C17.2943 20.3643 18.7046 20.3643 19.6636 21.1813C20.0744 21.5316 20.5853 21.7432 21.1234 21.7861C22.3793 21.8863 23.3765 22.8835 23.4767 24.1393C23.5196 24.6775 23.7313 25.1884 24.0814 25.5993C24.8986 26.5582 24.8986 27.9685 24.0814 28.9273C23.7313 29.3382 23.5196 29.8491 23.4767 30.3873C23.3765 31.6431 22.3793 32.6403 21.1234 32.7405C20.5853 32.7835 20.0744 32.995 19.6636 33.3453C18.7046 34.1623 17.2943 34.1623 16.3355 33.3453C15.9245 32.995 15.4138 32.7835 14.8755 32.7405C13.6197 32.6403 12.6225 31.6431 12.5223 30.3873C12.4793 29.8491 12.2677 29.3382 11.9175 28.9273C11.1004 27.9685 11.1004 26.5582 11.9175 25.5993C12.2677 25.1884 12.4793 24.6775 12.5223 24.1393C12.6225 22.8835 13.6197 21.8863 14.8755 21.7861C15.4138 21.7432 15.9245 21.5316 16.3355 21.1813Z" stroke="#0FA4AE" stroke-width="2"/>
<path d="M15.75 27.5632L17.0356 28.7632L20.25 25.7632" stroke="#0FA4AE" stroke-width="2" stroke-linecap="round" stroke-linejoin="round"/>
</svg>
