<svg width="36" height="37" viewBox="0 0 36 37" fill="none" xmlns="http://www.w3.org/2000/svg">
<path fill-rule="evenodd" clip-rule="evenodd" d="M17.3164 28.1676C17.7101 28.4534 18.2434 28.4534 18.6371 28.1676C18.6371 28.1676 22.02 25.7173 24.7256 22.0892C26.5987 19.5771 28.1242 16.5081 28.1242 13.3018C28.1242 7.32247 24.2284 2.50635 17.9767 2.50635C11.7251 2.50635 7.82812 7.32247 7.82812 13.3018C7.82812 16.5081 9.35475 19.5771 11.2279 22.0892C13.9335 25.7173 17.3164 28.1676 17.3164 28.1676ZM17.9767 25.8321C16.9282 24.9838 14.82 23.1422 13.0312 20.7437C11.4394 18.6096 10.0781 16.0266 10.0781 13.3018C10.0781 8.6061 13.0672 4.75635 17.9767 4.75635C22.8862 4.75635 25.8742 8.6061 25.8742 13.3018C25.8742 16.0266 24.5141 18.6096 22.9222 20.7437C21.1335 23.1422 19.0252 24.9838 17.9767 25.8321Z" fill="#0FA4AE"/>
<path fill-rule="evenodd" clip-rule="evenodd" d="M25.3156 26.6018C26.2189 27.1193 26.8703 27.6762 26.8703 28.3815C26.8703 29.0464 26.2797 29.5785 25.4596 30.0769C23.7518 31.113 20.9899 31.7565 17.8838 31.7565C14.7777 31.7565 12.0158 31.113 10.3092 30.0769C9.48794 29.5785 8.89844 29.0464 8.89844 28.3815C8.89844 28.0823 9.04244 27.8055 9.26406 27.5412C9.58806 27.1508 10.0662 26.8032 10.6534 26.4904C11.2013 26.199 11.4106 25.5173 11.1181 24.9694C10.8267 24.4204 10.1449 24.2123 9.59706 24.5048C7.67556 25.5274 6.64844 26.946 6.64844 28.3815C6.64844 29.7057 7.50569 31.0073 9.14144 32.0007C11.1147 33.1988 14.2939 34.0065 17.8838 34.0065C21.4748 34.0065 24.6529 33.1988 26.6262 32.0007C28.2619 31.0073 29.1203 29.7057 29.1203 28.3815C29.1203 27.009 28.1911 25.6568 26.4349 24.6499C25.8961 24.3417 25.2076 24.5273 24.8993 25.0662C24.5899 25.605 24.7767 26.2935 25.3156 26.6018Z" fill="#0FA4AE"/>
<path fill-rule="evenodd" clip-rule="evenodd" d="M16.875 11.5063H14.625C14.0051 11.5063 13.5 12.0103 13.5 12.6313C13.5 13.2523 14.0051 13.7563 14.625 13.7563H16.875L16.8739 16.0063C16.8739 16.6273 17.3779 17.1313 17.9989 17.1313C18.6199 17.1313 19.1239 16.6273 19.1239 16.0063L19.125 13.7563H21.375C21.996 13.7563 22.5 13.2523 22.5 12.6313C22.5 12.0103 21.996 11.5063 21.375 11.5063H19.125V9.25635C19.1261 8.63647 18.6221 8.13135 18.0011 8.13135C17.3801 8.13135 16.8761 8.63535 16.875 9.25635V11.5063Z" fill="#0FA4AE"/>
</svg>
