<svg width="36" height="37" viewBox="0 0 36 37" fill="none" xmlns="http://www.w3.org/2000/svg">
<g clip-path="url(#clip0_208_123)">
<path d="M31.2636 20.6073C31.2636 15.6762 28.2943 11.4279 24.0537 9.55884C24.0484 7.57677 22.4368 5.96586 20.4564 5.96586H14.4879V3.48464C14.4879 2.97579 14.0756 2.56349 13.5668 2.56349H12.5944C12.36 1.25754 11.2178 0.263184 9.84739 0.263184C8.47696 0.263184 7.33473 1.25754 7.10039 2.56349H6.12777C5.61893 2.56349 5.20662 2.97579 5.20662 3.48464V20.2491C5.20662 20.758 5.61893 21.1703 6.12777 21.1703H6.16351V24.0981C6.16351 24.6069 6.57582 25.0192 7.08467 25.0192H12.6102C13.1191 25.0192 13.5314 24.6069 13.5314 24.0981V21.1703H13.5666C14.0755 21.1703 14.4878 20.758 14.4878 20.2491V13.1721H18.2995V14.3846C18.2995 14.8934 18.7118 15.3057 19.2207 15.3057C22.118 15.3057 24.4752 17.6683 24.4752 20.5724C24.4752 23.4771 22.1671 25.7526 19.2207 25.7526C18.7118 25.7526 18.2995 26.1649 18.2995 26.6737V27.7199H5.94195C5.4331 27.7199 5.02079 28.1322 5.02079 28.6411C5.02079 29.1499 5.4331 29.5622 5.94195 29.5622H18.2996V30.6728H5.65553C5.14681 30.6728 4.73438 31.0851 4.73438 31.5939V35.3422C4.73438 35.851 5.14681 36.2633 5.65553 36.2633H24.8318C25.3407 36.2633 25.753 35.851 25.753 35.3422V31.5939C25.753 31.2934 25.6084 31.0274 25.3859 30.8592C26.2306 30.3646 27.0184 29.7654 27.7305 29.0657C30.0088 26.8271 31.2636 23.8232 31.2636 20.6073ZM9.84739 2.10549C10.1901 2.10549 10.4901 2.28935 10.6571 2.56349H9.03776C9.20467 2.28935 9.50472 2.10549 9.84739 2.10549ZM11.6892 23.1769H8.00582V21.1703H11.6891L11.6892 23.1769ZM13.5668 11.3298C13.0579 11.3298 12.6456 11.7421 12.6456 12.2509V19.328H7.04893V4.40579H12.6455V6.88701C12.6455 7.39585 13.0578 7.80816 13.5666 7.80816H20.4562C21.4241 7.80816 22.2115 8.59802 22.2115 9.56867C22.2115 10.5397 21.4241 11.3298 20.4562 11.3298H13.5668ZM23.9107 34.4209H6.57668V32.5149H23.9107V34.4209ZM20.1419 30.6332V27.5373C21.6896 27.3425 23.1173 26.658 24.2332 25.5615C25.5774 24.2408 26.3177 22.4689 26.3177 20.5723C26.3177 16.9652 23.6216 13.9768 20.1421 13.5229V13.172H20.4565C21.7865 13.172 22.9494 12.4448 23.5718 11.3671C27.0254 13.0065 29.4214 16.53 29.4214 20.6071C29.4214 23.3249 28.3624 25.8621 26.4394 27.7514C24.7386 29.4225 22.5297 30.4275 20.1419 30.6332Z" fill="#0FA4AE"/>
<path d="M21.1548 9.6172C21.1548 9.37414 21.0565 9.13697 20.8846 8.96502C20.7127 8.79418 20.4756 8.69604 20.2337 8.69604C19.9917 8.69604 19.7534 8.7943 19.5827 8.96502C19.4108 9.13685 19.3125 9.37401 19.3125 9.6172C19.3125 9.85928 19.4108 10.0974 19.5827 10.2681C19.7534 10.4401 19.9917 10.5384 20.2337 10.5384C20.4756 10.5384 20.7139 10.4401 20.8846 10.2681C21.0565 10.0963 21.1548 9.85928 21.1548 9.6172Z" fill="#0FA4AE"/>
</g>
<defs>
<clipPath id="clip0_208_123">
<rect width="36" height="36" fill="white" transform="translate(0 0.263184)"/>
</clipPath>
</defs>
</svg>
